HIERARCHY
ROOT Hips
{
 OFFSET 0.000000 0.000000 0.000000
 CHANNELS 6 Xposition Yposition Zposition Yrotation Xrotation Zrotation
 JOINT Chest
 {
  OFFSET 0.000000 13.173100 -0.061900
  CHANNELS 3 Yrotation Xrotation Zrotation
  JOINT Chest2
  {
   OFFSET 0.000000 8.040800 0.126200
   CHANNELS 3 Yrotation Xrotation Zrotation
   JOINT Chest3
   {
    OFFSET 0.000000 7.994400 0.000000
    CHANNELS 3 Yrotation Xrotation Zrotation
    JOINT Chest4
    {
     OFFSET 0.000000 7.986200 0.000000
     CHANNELS 3 Yrotation Xrotation Zrotation
     JOINT Neck
     {
      OFFSET 0.000000 12.259400 0.000000
      CHANNELS 3 Yrotation Xrotation Zrotation
      JOINT Head
      {
       OFFSET 0.000000 7.518700 0.267100
       CHANNELS 3 Yrotation Xrotation Zrotation
       End Site
       {
        OFFSET 0.000000 13.617700 0.141000
       }
      }
     }
     JOINT RightCollar
     {
      OFFSET -2.983800 8.314300 0.000000
      CHANNELS 3 Yrotation Xrotation Zrotation
      JOINT RightShoulder
      {
       OFFSET -16.133400 0.000000 0.000000
       CHANNELS 3 Yrotation Xrotation Zrotation
       JOINT RightElbow
       {
        OFFSET 0.000000 -29.822100 0.000000
        CHANNELS 3 Yrotation Xrotation Zrotation
        JOINT RightWrist
        {
         OFFSET 0.000000 -24.437700 0.010900
         CHANNELS 3 Yrotation Xrotation Zrotation
         End Site
         {
          OFFSET 0.000000 -18.312300 0.000000
         }
        }
       }
      }
     }
     JOINT LeftCollar
     {
      OFFSET 2.983800 8.314300 0.000000
      CHANNELS 3 Yrotation Xrotation Zrotation
      JOINT LeftShoulder
      {
       OFFSET 16.133400 0.000000 0.000000
       CHANNELS 3 Yrotation Xrotation Zrotation
       JOINT LeftElbow
       {
        OFFSET 0.000000 -29.822100 0.000000
        CHANNELS 3 Yrotation Xrotation Zrotation
        JOINT LeftWrist
        {
         OFFSET 0.000000 -24.437700 0.010900
         CHANNELS 3 Yrotation Xrotation Zrotation
         End Site
         {
          OFFSET 0.000000 -18.312300 0.000000
         }
        }
       }
      }
     }
    }
   }
  }
 }
 JOINT RightHip
 {
  OFFSET -11.206700 0.306200 0.030900
  CHANNELS 3 Yrotation Xrotation Zrotation
  JOINT RightKnee
  {
   OFFSET 0.000000 -57.334900 0.009400
   CHANNELS 3 Yrotation Xrotation Zrotation
   JOINT RightAnkle
   {
    OFFSET 0.000000 -43.376200 0.036600
    CHANNELS 3 Yrotation Xrotation Zrotation
    JOINT RightToe
    {
     OFFSET 0.000000 -10.035500 18.363100
     CHANNELS 3 Yrotation Xrotation Zrotation
     End Site
     {
      OFFSET 0.000000 -1.618500 7.239000
     }
    }
   }
  }
 }
 JOINT LeftHip
 {
  OFFSET 11.206700 0.306200 0.030900
  CHANNELS 3 Yrotation Xrotation Zrotation
  JOINT LeftKnee
  {
   OFFSET 0.000000 -57.334900 0.009400
   CHANNELS 3 Yrotation Xrotation Zrotation
   JOINT LeftAnkle
   {
    OFFSET 0.000000 -43.376200 0.036600
    CHANNELS 3 Yrotation Xrotation Zrotation
    JOINT LeftToe
    {
     OFFSET 0.000000 -10.035500 18.363100
     CHANNELS 3 Yrotation Xrotation Zrotation
     End Site
     {
      OFFSET 0.000000 -1.618500 7.239000
     }
    }
   }
  }
 }
}
MOTION
Frames: 14
Frame Time: 0.008333
-95.223716 65.449353 93.829478 172.451828 -39.459878 -1.411679 2.949375 20.900037 2.318788 0.357403 2.766362 0.368429 0.581959 4.531679 0.619580 2.669682 17.814576 2.776623 1.668862 16.222753 -1.114883 3.443152 -5.517220 -2.602530 -5.597338 -0.509691 -2.568525 -4.074774 -0.644240 4.071657 -150.797411 -85.613939 160.247668 1.225881 3.757618 1.125505 -4.501864 0.917596 -0.485612 11.086032 -1.782253 2.223283 157.095839 -77.429886 -169.790149 -6.280782 -2.312322 1.981562 -3.022710 -42.100375 2.847657 -151.049320 87.104253 -146.932009 -1.586650 -10.101667 -2.486809 0.009383 -0.114819 0.036393 -0.394885 -38.133349 4.069861 70.965818 83.907625 60.320352 -5.323946 -13.576585 9.448225 0.369665 1.121705 0.200289
-95.253762 65.375815 93.834209 172.465453 -39.440369 -1.349612 2.900838 20.904668 2.249116 0.363954 2.754920 0.361589 0.566384 4.563663 0.631435 2.649874 17.831854 2.771370 1.678274 16.211307 -1.121832 3.448687 -5.537739 -2.613966 -5.551531 -0.609878 -2.569520 -4.121331 -0.708874 4.111819 -151.100131 -85.691269 160.416159 1.277467 3.888267 1.158399 -4.522327 0.877647 -0.481883 11.037117 -1.791248 2.238955 157.722171 -77.630419 -170.374586 -6.724392 -1.075424 0.847257 -3.078467 -42.130093 2.794236 -150.384120 87.060127 -146.344471 -1.522569 -10.115111 -2.484650 0.016910 -0.111237 0.031009 -0.356139 -38.162177 3.991827 71.046900 83.895587 60.373448 -5.399089 -13.614684 9.457882 0.409507 1.174885 0.226987
-95.282569 65.310693 93.842010 172.498079 -39.413067 -1.299754 2.843916 20.888048 2.174298 0.350498 2.779445 0.371613 0.562117 4.575071 0.634432 2.646719 17.819775 2.757120 1.647045 16.266091 -1.094543 3.463855 -5.565314 -2.632780 -5.524357 -0.678335 -2.565487 -4.154339 -0.783864 4.148061 -151.442478 -85.777637 160.619219 1.310425 3.985520 1.115623 -4.612593 0.886355 -0.439348 11.046330 -1.812303 2.221940 158.232833 -77.823534 -170.862402 -7.201614 0.159008 -0.320031 -3.180580 -42.158674 2.769422 -150.647576 87.056807 -146.707560 -1.539423 -10.144062 -2.483673 0.036302 -0.093745 0.029467 -0.317868 -38.197503 3.906149 71.096436 83.891832 60.413859 -5.484259 -13.658984 9.453476 0.466403 1.232091 0.263626
-95.299396 65.257013 93.849263 172.508580 -39.407368 -1.275260 2.810843 20.909273 2.153551 0.331014 2.811477 0.383017 0.567888 4.564316 0.620427 2.619131 17.858330 2.757430 1.648694 16.253814 -1.101219 3.469771 -5.587807 -2.646173 -5.461851 -0.793764 -2.581608 -4.182840 -0.864745 4.178864 -151.867135 -85.865409 160.897389 1.328236 4.072778 1.031652 -4.645052 0.839931 -0.433319 11.030386 -1.834268 2.228252 158.508172 -78.011759 -171.146796 -7.699439 1.373497 -1.459849 -3.181604 -42.164086 2.731499 -150.348110 87.052457 -146.429788 -1.525017 -10.147876 -2.480457 0.028332 -0.097964 0.027086 -0.293007 -38.212365 3.864412 71.122927 83.883473 60.435618 -5.516753 -13.675540 9.456151 0.487715 1.258077 0.277046
-95.310007 65.211860 93.856787 172.504672 -39.412799 -1.254127 2.786891 20.942191 2.143242 0.320701 2.827493 0.383280 0.569366 4.570395 0.616747 2.590416 17.901608 2.758771 1.656808 16.226668 -1.113783 3.489466 -5.627138 -2.672112 -5.401123 -0.915657 -2.600435 -4.191324 -0.939596 4.203908 -152.336313 -85.945217 161.210130 1.340441 4.169706 0.941648 -4.656339 0.781327 -0.437029 11.002728 -1.851797 2.253742 158.466781 -78.195943 -171.152674 -8.188707 2.525510 -2.498048 -3.173175 -42.155639 2.707124 -150.796099 87.082411 -146.888745 -1.559548 -10.139967 -2.480150 0.032718 -0.099723 0.028072 -0.270216 -38.213011 3.838530 71.120502 83.879111 60.431500 -5.529288 -13.687725 9.454236 0.499516 1.274619 0.285727
-95.313867 65.173234 93.865285 172.499668 -39.424119 -1.247299 2.765957 20.978229 2.141634 0.318771 2.837624 0.384789 0.579529 4.560828 0.610500 2.561912 17.952508 2.768024 1.653027 16.215753 -1.118657 3.476925 -5.637807 -2.671906 -5.346128 -1.036889 -2.616451 -4.189386 -0.991435 4.221063 -152.649798 -86.021088 161.392054 1.353053 4.276811 0.833273 -4.678532 0.737843 -0.433237 10.980277 -1.869020 2.282654 158.039119 -78.377040 -170.806634 -8.643325 3.569368 -3.387209 -3.130615 -42.137224 2.698761 -150.508055 87.099407 -146.599100 -1.587353 -10.131474 -2.467374 0.041961 -0.097470 0.039012 -0.246248 -38.209368 3.829244 71.091345 83.880808 60.412002 -5.538399 -13.687755 9.452887 0.511891 1.274328 0.288255
-95.321011 65.136928 93.876712 172.514159 -39.420022 -1.227347 2.702045 21.020698 2.114713 0.334443 2.829324 0.376991 0.569392 4.587038 0.615993 2.551194 17.966376 2.763902 1.645067 16.205531 -1.124533 3.454001 -5.647073 -2.671164 -5.300862 -1.127492 -2.639617 -4.178037 -1.062957 4.238821 -152.578275 -86.100294 161.259563 1.367975 4.385993 0.678923 -4.702580 0.693507 -0.428050 10.959460 -1.886244 2.310652 157.172199 -78.555276 -170.047378 -9.040476 4.482694 -4.102366 -3.059595 -42.138658 2.630181 -150.595010 87.120709 -146.659597 -1.606776 -10.122332 -2.462371 0.060225 -0.104212 0.041179 -0.214716 -38.218923 3.791955 70.925135 83.881560 60.234938 -5.534300 -13.667912 9.477269 0.502580 1.273723 0.286668
-95.318652 65.105504 93.888705 172.499980 -39.422987 -1.220339 2.707803 21.030274 2.117426 0.319729 2.856800 0.385294 0.560078 4.612903 0.621902 2.549004 17.961451 2.756541 1.629697 16.213749 -1.122339 3.434307 -5.660593 -2.678598 -5.260499 -1.219054 -2.656406 -4.184139 -1.104329 4.245453 -153.340303 -86.148698 161.770565 1.336632 4.543321 0.755964 -4.707522 0.653331 -0.432186 10.910164 -1.892699 2.355019 155.888342 -78.730327 -168.889628 -9.356275 5.263942 -4.650013 -2.969648 -42.131855 2.593602 -151.343491 87.175682 -147.362301 -1.672062 -10.096402 -2.454785 0.067763 -0.113714 0.042030 -0.187631 -38.221238 3.796605 70.816332 83.890867 60.125532 -5.525488 -13.657752 9.490584 0.490130 1.267673 0.281735
-95.313424 65.078062 93.900408 172.487436 -39.430051 -1.220370 2.701599 21.063522 2.128859 0.324840 2.855162 0.383450 0.552200 4.632856 0.627315 2.556867 17.935723 2.743813 1.603747 16.256364 -1.102303 3.410361 -5.666488 -2.685364 -5.231501 -1.299830 -2.654436 -4.202907 -1.078848 4.235459 -153.707890 -86.176684 161.980884 1.323043 4.675194 0.780363 -4.728515 0.648601 -0.423111 10.861395 -1.896325 2.396083 154.295108 -78.896862 -167.431917 -9.579133 5.925389 -5.077645 -2.880703 -42.118721 2.559449 -151.222770 87.205722 -147.188504 -1.682507 -10.066886 -2.449240 0.066807 -0.123920 0.041608 -0.166809 -38.218741 3.812301 70.702902 83.902764 60.011579 -5.519763 -13.643713 9.504565 0.477539 1.257461 0.275715
-95.307325 65.053765 93.911814 172.476859 -39.437972 -1.223198 2.697449 21.094996 2.141752 0.336376 2.839456 0.377654 0.539101 4.656977 0.635095 2.524666 18.013464 2.771948 1.600458 16.210294 -1.133908 3.387232 -5.666635 -2.692898 -5.178038 -1.442991 -2.697176 -4.211594 -1.083811 4.230859 -153.779729 -86.217022 161.941748 1.312298 4.789126 0.788069 -4.777560 0.576954 -0.410586 10.875328 -1.910621 2.383930 152.546931 -79.045157 -165.812054 -9.721891 6.488675 -5.448302 -2.839225 -42.102614 2.551117 -150.972794 87.232937 -146.912590 -1.675929 -10.034119 -2.450071 0.056585 -0.136339 0.041376 -0.153280 -38.213533 3.830681 70.586505 83.911855 59.890464 -5.504958 -13.631372 9.517157 0.466886 1.240857 0.265148
-95.300388 65.033049 93.922021 172.449001 -39.450693 -1.219866 2.700395 21.129848 2.156442 0.335400 2.847378 0.379609 0.556427 4.637498 0.627484 2.484950 18.076970 2.794929 1.593462 16.197514 -1.150013 3.367331 -5.663048 -2.700748 -5.132190 -1.542895 -2.730423 -4.243043 -1.122465 4.219821 -153.332387 -86.277542 161.467418 1.300136 4.905607 0.754133 -4.787724 0.524736 -0.411503 10.836384 -1.901650 2.397009 150.765536 -79.173623 -164.142323 -9.817247 6.969229 -5.807988 -2.793259 -42.079122 2.553380 -150.525670 87.259009 -146.439487 -1.675468 -10.007123 -2.449796 0.055719 -0.142064 0.040134 -0.138335 -38.199343 3.855569 70.478969 83.917273 59.777037 -5.484515 -13.625049 9.525561 0.448255 1.231372 0.255477
-95.292218 65.014552 93.932430 172.432462 -39.459033 -1.234505 2.658745 21.177904 2.168712 0.365509 2.835649 0.377409 0.554289 4.649545 0.629996 2.468833 18.094122 2.796823 1.595497 16.187555 -1.163528 3.335370 -5.644448 -2.697109 -5.088081 -1.606901 -2.756408 -4.336659 -1.226728 4.162026 -151.935668 -86.394352 160.031918 1.270832 5.006549 0.796311 -4.756739 0.475103 -0.429836 10.749862 -1.867076 2.438221 149.023264 -79.279288 -162.501756 -9.901626 7.378888 -6.171008 -2.757951 -42.057113 2.560611 -150.034573 87.286993 -145.909914 -1.671574 -9.976818 -2.455836 0.056525 -0.150447 0.037708 -0.130388 -38.191515 3.896285 70.361046 83.932005 59.663654 -5.484155 -13.617293 9.522856 0.451792 1.221936 0.258801
-95.288916 64.997852 93.942155 172.418253 -39.462052 -1.236907 2.640396 21.201293 2.171988 0.347482 2.855136 0.381519 0.568956 4.647177 0.628282 2.463203 18.098025 2.795583 1.613490 16.164099 -1.182764 3.275497 -5.600887 -2.669943 -5.059391 -1.675987 -2.779741 -4.402804 -1.287006 4.104452 -150.799296 -86.506653 158.852715 1.239937 5.112397 0.831127 -4.773122 0.456808 -0.414490 10.710035 -1.828299 2.447893 147.420040 -79.348458 -161.003099 -9.996544 7.733912 -6.520575 -2.773278 -42.038332 2.568893 -149.792432 87.317543 -145.657605 -1.654007 -9.954647 -2.470982 0.042887 -0.154888 0.028997 -0.110109 -38.184378 3.923341 70.156237 83.949347 59.449462 -5.484389 -13.605576 9.536497 0.451791 1.214211 0.262176
-95.285973 64.983003 93.951414 172.404955 -39.461405 -1.246793 2.640607 21.210266 2.186680 0.346381 2.858472 0.382725 0.547815 4.669838 0.633636 2.484490 18.076060 2.785466 1.527436 16.240580 -1.144129 3.298912 -5.634452 -2.708832 -5.060155 -1.719784 -2.792371 -4.454006 -1.332188 4.051329 -149.931468 -86.617851 157.963071 1.226457 5.237526 0.846440 -4.870956 0.495233 -0.352365 10.743776 -1.801737 2.418338 146.017035 -79.377887 -159.711523 -10.102885 8.040599 -6.828114 -2.825261 -42.019155 2.601893 -148.892932 87.329379 -144.762794 -1.603806 -9.935691 -2.497159 0.040402 -0.157349 0.024547 -0.095279 -38.180657 3.959271 69.992213 83.961582 59.276219 -5.490846 -13.595622 9.546745 0.448653 1.210214 0.272139
